<?xml version="1.0" encoding="UTF-8" standalone="no"?>
<!-- Created with Inkscape (http://www.inkscape.org/) -->

<svg
   xmlns:dc="http://purl.org/dc/elements/1.1/"
   xmlns:cc="http://creativecommons.org/ns#"
   xmlns:rdf="http://www.w3.org/1999/02/22-rdf-syntax-ns#"
   xmlns:svg="http://www.w3.org/2000/svg"
   xmlns="http://www.w3.org/2000/svg"
   xmlns:sodipodi="http://sodipodi.sourceforge.net/DTD/sodipodi-0.dtd"
   xmlns:inkscape="http://www.inkscape.org/namespaces/inkscape"
   width="180"
   height="380"
   viewBox="0 0 47.624999 100.54167"
   version="1.1"
   id="svg4690"
   inkscape:version="0.92.2 (5c3e80d, 2017-08-06)"
   sodipodi:docname="grpGran2.svg">
  <defs
     id="defs4684">
    <clipPath
       id="clip444">
      <path
         inkscape:connector-curvature="0"
         id="path24586"
         d="m 1201.582,338.19922 h 18 v 18 h -18 z m 0,0" />
    </clipPath>
  </defs>
  <sodipodi:namedview
     id="base"
     pagecolor="#ffffff"
     bordercolor="#666666"
     borderopacity="1.0"
     inkscape:pageopacity="0.0"
     inkscape:pageshadow="2"
     inkscape:zoom="1.9827809"
     inkscape:cx="42.609488"
     inkscape:cy="194.2917"
     inkscape:document-units="px"
     inkscape:current-layer="layer1"
     showgrid="true"
     units="px"
     fit-margin-top="0"
     fit-margin-left="0"
     fit-margin-right="0"
     fit-margin-bottom="0"
     inkscape:window-width="1175"
     inkscape:window-height="966"
     inkscape:window-x="2184"
     inkscape:window-y="163"
     inkscape:window-maximized="0"
     inkscape:lockguides="false"
     showguides="false">
    <inkscape:grid
       type="xygrid"
       id="grid4930" />
  </sodipodi:namedview>
  <metadata
     id="metadata4687">
    <rdf:RDF>
      <cc:Work
         rdf:about="">
        <dc:format>image/svg+xml</dc:format>
        <dc:type
           rdf:resource="http://purl.org/dc/dcmitype/StillImage" />
        <dc:title></dc:title>
      </cc:Work>
    </rdf:RDF>
  </metadata>
  <g
     inkscape:label="Layer 1"
     inkscape:groupmode="layer"
     id="layer1"
     transform="translate(0,-196.45832)">
    <rect
       style="fill:#cccccc;stroke-width:0.26458332"
       id="rect4928"
       width="47.625"
       height="100.54166"
       x="-7.9108933e-009"
       y="196.45833" />
    <g
       style="font-style:normal;font-variant:normal;font-weight:normal;font-stretch:normal;font-size:3.88055563px;line-height:6.61458302px;font-family:DINPro;-inkscape-font-specification:DINPro;font-variant-ligatures:normal;font-variant-caps:normal;font-variant-numeric:normal;font-feature-settings:normal;text-align:center;letter-spacing:0px;word-spacing:0px;writing-mode:lr-tb;text-anchor:middle;fill:#000000;fill-opacity:1;stroke:none;stroke-width:0.26458332px;stroke-linecap:butt;stroke-linejoin:miter;stroke-opacity:1"
       transform="translate(-80.144487,160.18535)"
       id="layer1-6"
       inkscape:label="Layer 1">
      <path
         style="fill:#e6e6e6;fill-opacity:1;fill-rule:nonzero;stroke:#636663;stroke-width:0.25;stroke-miterlimit:4;stroke-dasharray:none;stroke-opacity:1"
         d="m 92.788964,127.42922 c -2.235179,0 -4.05281,-1.81762 -4.05281,-4.05282 0,-2.23516 1.817631,-4.05281 4.05281,-4.05281 2.235176,0 4.05281,1.81765 4.05281,4.05281 0,2.2352 -1.817634,4.05282 -4.05281,4.05282"
         id="path7255"
         inkscape:connector-curvature="0" />
      <path
         style="fill:#e6e6e6;fill-opacity:1;fill-rule:nonzero;stroke:#636663;stroke-width:0.25;stroke-miterlimit:4;stroke-dasharray:none;stroke-opacity:1"
         d="m 92.788964,126.29511 c -1.609548,0 -2.918685,-1.30916 -2.918685,-2.91871 0,-1.60954 1.309137,-2.91867 2.918685,-2.91867 1.609549,0 2.918682,1.30913 2.918682,2.91867 0,1.60955 -1.309133,2.91871 -2.918682,2.91871"
         id="path7261"
         inkscape:connector-curvature="0" />
      <path
         style="fill:#000000;fill-opacity:1;fill-rule:nonzero;stroke:none;stroke-width:0.35277775"
         d="m 94.588681,123.3764 c 0,0.99357 -0.806153,1.79974 -1.799717,1.79974 -0.993567,0 -1.79972,-0.80617 -1.79972,-1.79974 0,-0.99356 0.806153,-1.79969 1.79972,-1.79969 0.993564,0 1.799717,0.80613 1.799717,1.79969"
         id="path7265"
         inkscape:connector-curvature="0" />
    </g>
    <g
       transform="translate(-42.987054,141.82179)"
       aria-label="in"
       style="font-style:normal;font-variant:normal;font-weight:normal;font-stretch:normal;font-size:4.4127388px;line-height:1.25;font-family:sans-serif;-inkscape-font-specification:DINPro;font-variant-ligatures:normal;font-variant-caps:normal;font-variant-numeric:normal;font-feature-settings:normal;text-align:center;letter-spacing:0px;word-spacing:0px;writing-mode:lr-tb;text-anchor:middle;fill:#000000;fill-opacity:1;stroke:none;stroke-width:0.02918843px;stroke-linecap:butt;stroke-linejoin:miter;stroke-opacity:1"
       id="text3789">
      <path
         d="m 54.283928,148.02971 h -0.456787 v -0.42016 h 0.456787 z m -0.02586,2.80968 h -0.405076 v -2.40676 h 0.405076 z"
         style="stroke-width:0.02918843px"
         id="path4669"
         inkscape:connector-curvature="0" />
      <path
         d="m 57.076364,150.83939 h -0.405075 v -1.37037 q 0,-0.1659 -0.01939,-0.31027 -0.01939,-0.14651 -0.0711,-0.22839 -0.05387,-0.0905 -0.155135,-0.13359 -0.101269,-0.0453 -0.262869,-0.0453 -0.165908,0 -0.3469,0.0819 -0.180991,0.0819 -0.346899,0.209 v 1.79699 H 55.06392 v -2.40676 h 0.405076 v 0.26718 q 0.189609,-0.15729 0.392147,-0.24563 0.202538,-0.0883 0.415849,-0.0883 0.389993,0 0.594686,0.23486 0.204692,0.23485 0.204692,0.67656 z"
         style="stroke-width:0.02918843px"
         id="path4671"
         inkscape:connector-curvature="0" />
    </g>
    <rect
       id="rect4360"
       width="9.3544331"
       height="9.7553377"
       x="27.438471"
       y="278.46008"
       style="stroke-width:0.26458335" />
    <g
       inkscape:label="Layer 1"
       id="g4358"
       transform="translate(-60.829904,160.18535)"
       style="font-style:normal;font-variant:normal;font-weight:normal;font-stretch:normal;font-size:3.88055563px;line-height:6.61458302px;font-family:DINPro;-inkscape-font-specification:DINPro;font-variant-ligatures:normal;font-variant-caps:normal;font-variant-numeric:normal;font-feature-settings:normal;text-align:center;letter-spacing:0px;word-spacing:0px;writing-mode:lr-tb;text-anchor:middle;fill:#000000;fill-opacity:1;stroke:none;stroke-width:0.26458332px;stroke-linecap:butt;stroke-linejoin:miter;stroke-opacity:1">
      <path
         inkscape:connector-curvature="0"
         id="path4352"
         d="m 92.788964,127.42922 c -2.235179,0 -4.05281,-1.81762 -4.05281,-4.05282 0,-2.23516 1.817631,-4.05281 4.05281,-4.05281 2.235176,0 4.05281,1.81765 4.05281,4.05281 0,2.2352 -1.817634,4.05282 -4.05281,4.05282"
         style="fill:#e6e6e6;fill-opacity:1;fill-rule:nonzero;stroke:#636663;stroke-width:0.25;stroke-miterlimit:4;stroke-dasharray:none;stroke-opacity:1" />
      <path
         inkscape:connector-curvature="0"
         id="path4354"
         d="m 92.788964,126.29511 c -1.609548,0 -2.918685,-1.30916 -2.918685,-2.91871 0,-1.60954 1.309137,-2.91867 2.918685,-2.91867 1.609549,0 2.918682,1.30913 2.918682,2.91867 0,1.60955 -1.309133,2.91871 -2.918682,2.91871"
         style="fill:#e6e6e6;fill-opacity:1;fill-rule:nonzero;stroke:#636663;stroke-width:0.25;stroke-miterlimit:4;stroke-dasharray:none;stroke-opacity:1" />
      <path
         inkscape:connector-curvature="0"
         id="path4356"
         d="m 94.588681,123.3764 c 0,0.99357 -0.806153,1.79974 -1.799717,1.79974 -0.993567,0 -1.79972,-0.80617 -1.79972,-1.79974 0,-0.99356 0.806153,-1.79969 1.79972,-1.79969 0.993564,0 1.799717,0.80613 1.799717,1.79969"
         style="fill:#000000;fill-opacity:1;fill-rule:nonzero;stroke:none;stroke-width:0.35277775" />
    </g>
    <g
       transform="translate(-42.987054,141.82179)"
       aria-label="out"
       style="font-style:normal;font-variant:normal;font-weight:normal;font-stretch:normal;font-size:4.25241232px;line-height:1.25;font-family:sans-serif;-inkscape-font-specification:DINPro;font-variant-ligatures:normal;font-variant-caps:normal;font-variant-numeric:normal;font-feature-settings:normal;text-align:center;letter-spacing:0px;word-spacing:0px;writing-mode:lr-tb;text-anchor:middle;fill:#000000;fill-opacity:1;stroke:none;stroke-width:0.02812793px;stroke-linecap:butt;stroke-linejoin:miter;stroke-opacity:1"
       id="text3793">
      <path
         d="m 74.48449,149.77653 q 0,0.56685 -0.290692,0.89492 -0.290692,0.32807 -0.77864,0.32807 -0.4921,0 -0.782793,-0.32807 -0.288616,-0.32807 -0.288616,-0.89492 0,-0.56685 0.288616,-0.89491 0.290693,-0.33015 0.782793,-0.33015 0.487948,0 0.77864,0.33015 0.290692,0.32806 0.290692,0.89491 z m -0.402816,0 q 0,-0.45057 -0.176492,-0.66859 -0.176492,-0.22009 -0.490024,-0.22009 -0.317685,0 -0.494177,0.22009 -0.174415,0.21802 -0.174415,0.66859 0,0.43604 0.176492,0.66237 0.176491,0.22425 0.4921,0.22425 0.311456,0 0.487948,-0.22218 0.178568,-0.22424 0.178568,-0.66444 z"
         style="stroke-width:0.02812793px"
         id="path4662"
         inkscape:connector-curvature="0" />
      <path
         d="m 77.013513,150.93515 h -0.390358 v -0.25747 q -0.197256,0.15573 -0.3779,0.23878 -0.180645,0.0831 -0.398664,0.0831 -0.365442,0 -0.568926,-0.22217 -0.203485,-0.22425 -0.203485,-0.65614 v -1.50537 h 0.390358 v 1.32057 q 0,0.1765 0.01661,0.30316 0.01661,0.12458 0.0706,0.21386 0.05606,0.0914 0.145346,0.13289 0.08928,0.0415 0.259547,0.0415 0.151575,0 0.330143,-0.0789 0.180645,-0.0789 0.336373,-0.2014 v -1.7317 h 0.390358 z"
         style="stroke-width:0.02812793px"
         id="path4664"
         inkscape:connector-curvature="0" />
      <path
         d="m 78.986067,150.91439 q -0.110048,0.0291 -0.240859,0.0478 -0.128735,0.0187 -0.230478,0.0187 -0.355059,0 -0.539857,-0.19103 -0.184797,-0.19102 -0.184797,-0.61253 v -1.23336 h -0.263699 v -0.32807 h 0.263699 v -0.66651 h 0.390358 v 0.66651 h 0.805633 v 0.32807 h -0.805633 v 1.05687 q 0,0.18272 0.0083,0.28654 0.0083,0.10174 0.05814,0.19103 0.04568,0.083 0.124583,0.1225 0.08098,0.0374 0.245012,0.0374 0.09551,0 0.199331,-0.027 0.103819,-0.0291 0.149499,-0.0478 h 0.02076 z"
         style="stroke-width:0.02812793px"
         id="path4666"
         inkscape:connector-curvature="0" />
    </g>
    <g
       style="font-style:normal;font-variant:normal;font-weight:normal;font-stretch:normal;font-size:medium;line-height:6.61458302px;font-family:DINPro;-inkscape-font-specification:DINPro;font-variant-ligatures:normal;font-variant-caps:normal;font-variant-numeric:normal;font-feature-settings:normal;text-align:center;letter-spacing:0px;word-spacing:0px;writing-mode:lr-tb;text-anchor:middle;fill:#000000;fill-opacity:1;stroke:none;stroke-width:0.26458332px;stroke-linecap:butt;stroke-linejoin:miter;stroke-opacity:1"
       inkscape:label="Layer 1"
       id="layer1-5"
       transform="translate(-31.237338,122.1436)">
      <path
         inkscape:connector-curvature="0"
         id="path7219"
         d="m 46.318588,100.79786 c 0,1.74046 1.409735,3.15019 3.1502,3.15019 1.739088,0 3.148824,-1.40973 3.148824,-3.15019 0,-1.739087 -1.409736,-3.150198 -3.148824,-3.150198 -1.740465,0 -3.1502,1.411111 -3.1502,3.150198"
         style="fill:#000000;fill-opacity:1;fill-rule:nonzero;stroke:none;stroke-width:0.35277775" />
      <path
         inkscape:connector-curvature="0"
         id="path7221"
         d="m 49.672764,97.658686 c -0.06752,-0.0055 -0.135079,-0.01101 -0.203976,-0.01101 -0.0689,0 -0.137795,0.0055 -0.205317,0.01101 v 3.139174 h 0.409293 z m 0,0"
         style="fill:#ffffff;fill-opacity:1;fill-rule:nonzero;stroke:none;stroke-width:0.35277775" />
    </g>
    <g
       inkscape:label="Layer 1"
       id="g4368"
       transform="translate(-85.965321,99.331184)"
       style="font-style:normal;font-variant:normal;font-weight:normal;font-stretch:normal;font-size:3.88055563px;line-height:6.61458302px;font-family:DINPro;-inkscape-font-specification:DINPro;font-variant-ligatures:normal;font-variant-caps:normal;font-variant-numeric:normal;font-feature-settings:normal;text-align:center;letter-spacing:0px;word-spacing:0px;writing-mode:lr-tb;text-anchor:middle;fill:#000000;fill-opacity:1;stroke:none;stroke-width:0.26458332px;stroke-linecap:butt;stroke-linejoin:miter;stroke-opacity:1">
      <path
         inkscape:connector-curvature="0"
         id="path4362"
         d="m 92.788964,127.42922 c -2.235179,0 -4.05281,-1.81762 -4.05281,-4.05282 0,-2.23516 1.817631,-4.05281 4.05281,-4.05281 2.235176,0 4.05281,1.81765 4.05281,4.05281 0,2.2352 -1.817634,4.05282 -4.05281,4.05282"
         style="fill:#e6e6e6;fill-opacity:1;fill-rule:nonzero;stroke:#636663;stroke-width:0.25;stroke-miterlimit:4;stroke-dasharray:none;stroke-opacity:1" />
      <path
         inkscape:connector-curvature="0"
         id="path4364"
         d="m 92.788964,126.29511 c -1.609548,0 -2.918685,-1.30916 -2.918685,-2.91871 0,-1.60954 1.309137,-2.91867 2.918685,-2.91867 1.609549,0 2.918682,1.30913 2.918682,2.91867 0,1.60955 -1.309133,2.91871 -2.918682,2.91871"
         style="fill:#e6e6e6;fill-opacity:1;fill-rule:nonzero;stroke:#636663;stroke-width:0.25;stroke-miterlimit:4;stroke-dasharray:none;stroke-opacity:1" />
      <path
         inkscape:connector-curvature="0"
         id="path4366"
         d="m 94.588681,123.3764 c 0,0.99357 -0.806153,1.79974 -1.799717,1.79974 -0.993567,0 -1.79972,-0.80617 -1.79972,-1.79974 0,-0.99356 0.806153,-1.79969 1.79972,-1.79969 0.993564,0 1.799717,0.80613 1.799717,1.79969"
         style="fill:#000000;fill-opacity:1;fill-rule:nonzero;stroke:none;stroke-width:0.35277775" />
    </g>
    <g
       transform="translate(-42.987054,141.82179)"
       aria-label="grain size"
       style="font-style:normal;font-variant:normal;font-weight:normal;font-stretch:normal;font-size:4.03314352px;line-height:1.25;font-family:sans-serif;-inkscape-font-specification:DINPro;font-variant-ligatures:normal;font-variant-caps:normal;font-variant-numeric:normal;font-feature-settings:normal;text-align:center;letter-spacing:0px;word-spacing:0px;writing-mode:lr-tb;text-anchor:middle;fill:#000000;fill-opacity:1;stroke:none;stroke-width:0.02667756px;stroke-linecap:butt;stroke-linejoin:miter;stroke-opacity:1"
       id="text3805">
      <path
         d="m 68.930724,83.762273 q 0,0.559283 -0.254041,0.821201 -0.254041,0.261918 -0.781815,0.261918 -0.175269,0 -0.34266,-0.0256 -0.165422,-0.02363 -0.326905,-0.06892 v -0.378108 h 0.01969 q 0.09059,0.03545 0.287519,0.08665 0.196931,0.05317 0.393862,0.05317 0.189053,0 0.31312,-0.04529 0.124066,-0.04529 0.192992,-0.126036 0.06893,-0.0768 0.09846,-0.185115 0.02954,-0.108312 0.02954,-0.242225 V 83.71304 q -0.167391,0.133913 -0.320997,0.200869 -0.151637,0.06499 -0.387954,0.06499 -0.393862,0 -0.62624,-0.283581 -0.230409,-0.285549 -0.230409,-0.803478 0,-0.28358 0.07877,-0.488388 0.08074,-0.206777 0.218593,-0.356445 0.128005,-0.139821 0.311151,-0.216624 0.183146,-0.07877 0.364322,-0.07877 0.191023,0 0.319028,0.03939 0.129974,0.03742 0.273734,0.116189 l 0.02363,-0.09453 h 0.346598 z m -0.37023,-0.354476 v -1.199309 q -0.147698,-0.06696 -0.275703,-0.09453 -0.126036,-0.02954 -0.252072,-0.02954 -0.305243,0 -0.480511,0.204808 -0.175268,0.204808 -0.175268,0.594731 0,0.37023 0.129974,0.561253 0.129974,0.191023 0.431278,0.191023 0.161484,0 0.322967,-0.06105 0.163453,-0.06302 0.299335,-0.167391 z"
         style="stroke-width:0.02667756px"
         id="path4592"
         inkscape:connector-curvature="0" />
      <path
         d="m 71.031976,82.216366 h -0.01969 q -0.08271,-0.01969 -0.161484,-0.02757 -0.0768,-0.0098 -0.183145,-0.0098 -0.17133,0 -0.330844,0.0768 -0.159514,0.07483 -0.307212,0.194961 v 1.561662 h -0.37023 v -2.199718 h 0.37023 v 0.324936 q 0.220562,-0.177237 0.387954,-0.250102 0.16936,-0.07483 0.344629,-0.07483 0.0965,0 0.13982,0.0059 0.04332,0.0039 0.129975,0.01772 z"
         style="stroke-width:0.02667756px"
         id="path4594"
         inkscape:connector-curvature="0" />
      <path
         d="m 73.093841,84.012375 h -0.36826 v -0.234348 q -0.04923,0.03348 -0.133913,0.09453 -0.08271,0.05908 -0.161484,0.09453 -0.09256,0.04529 -0.212685,0.07483 -0.120128,0.03151 -0.281611,0.03151 -0.297366,0 -0.504143,-0.19693 -0.206777,-0.196931 -0.206777,-0.502174 0,-0.250102 0.106342,-0.403708 0.108312,-0.155576 0.307212,-0.244194 0.20087,-0.08862 0.482481,-0.120128 0.281611,-0.03151 0.604578,-0.04726 v -0.05711 q 0,-0.126035 -0.04529,-0.208746 -0.04333,-0.08271 -0.126036,-0.129975 -0.07877,-0.04529 -0.189054,-0.06105 -0.110281,-0.01575 -0.230409,-0.01575 -0.145729,0 -0.324936,0.03939 -0.179207,0.03742 -0.37023,0.110282 h -0.01969 v -0.376138 q 0.108312,-0.02954 0.31312,-0.06499 0.204808,-0.03545 0.403709,-0.03545 0.232378,0 0.403708,0.03939 0.173299,0.03742 0.299335,0.129975 0.124066,0.09059 0.189053,0.234347 0.06499,0.14376 0.06499,0.356445 z m -0.36826,-0.54156 V 82.85836 q -0.169361,0.0098 -0.39977,0.02954 -0.22844,0.01969 -0.362353,0.05711 -0.159514,0.04529 -0.257979,0.14179 -0.09846,0.09453 -0.09846,0.261918 0,0.189054 0.114219,0.28555 0.11422,0.09453 0.348568,0.09453 0.194962,0 0.356445,-0.07483 0.161483,-0.0768 0.299335,-0.183146 z"
         style="stroke-width:0.02667756px"
         id="path4596"
         inkscape:connector-curvature="0" />
      <path
         d="m 74.20847,81.444397 h -0.417493 v -0.384015 h 0.417493 z m -0.02363,2.567978 h -0.37023 v -2.199718 h 0.37023 z"
         style="stroke-width:0.02667756px"
         id="path4598"
         inkscape:connector-curvature="0" />
      <path
         d="m 76.760694,84.012375 h -0.37023 v -1.25248 q 0,-0.151637 -0.01772,-0.283581 -0.01772,-0.133913 -0.06499,-0.208746 -0.04923,-0.08271 -0.14179,-0.122097 -0.09256,-0.04136 -0.240256,-0.04136 -0.151637,0 -0.317059,0.07483 -0.165421,0.07483 -0.317058,0.191023 v 1.642403 h -0.37023 v -2.199718 h 0.37023 v 0.244195 q 0.173299,-0.14376 0.358414,-0.224501 0.185115,-0.08074 0.380076,-0.08074 0.356445,0 0.54353,0.214654 0.187084,0.214655 0.187084,0.618363 z"
         style="stroke-width:0.02667756px"
         id="path4600"
         inkscape:connector-curvature="0" />
      <path
         d="m 80.462994,83.378258 q 0,0.301304 -0.250103,0.494296 -0.248132,0.192992 -0.679411,0.192992 -0.244194,0 -0.449002,-0.05711 -0.202839,-0.05908 -0.340691,-0.128005 v -0.415524 h 0.01969 q 0.175269,0.131944 0.389924,0.210716 0.214654,0.0768 0.411585,0.0768 0.244194,0 0.382046,-0.07877 0.137851,-0.07877 0.137851,-0.248133 0,-0.129974 -0.07483,-0.196931 -0.07483,-0.06696 -0.287519,-0.11422 -0.07877,-0.01772 -0.206778,-0.04135 -0.126035,-0.02363 -0.230409,-0.0512 -0.289488,-0.0768 -0.411585,-0.224501 -0.120128,-0.149668 -0.120128,-0.366292 0,-0.135882 0.05514,-0.25601 0.05711,-0.120128 0.171329,-0.214654 0.110282,-0.09256 0.279642,-0.145729 0.17133,-0.05514 0.382046,-0.05514 0.196931,0 0.3978,0.04923 0.202839,0.04726 0.336752,0.116189 v 0.395831 h -0.01969 q -0.14179,-0.104373 -0.344629,-0.175268 -0.202839,-0.07287 -0.3978,-0.07287 -0.202839,0 -0.34266,0.07877 -0.139821,0.0768 -0.139821,0.23041 0,0.135882 0.08468,0.204808 0.08271,0.06892 0.267826,0.11225 0.102404,0.02363 0.22844,0.04726 0.128005,0.02363 0.212685,0.04332 0.25798,0.05908 0.397801,0.202839 0.139821,0.145729 0.139821,0.385985 z"
         style="stroke-width:0.02667756px"
         id="path4602"
         inkscape:connector-curvature="0" />
      <path
         d="m 81.392508,81.444397 h -0.417494 v -0.384015 h 0.417494 z m -0.02363,2.567978 h -0.37023 v -2.199718 h 0.37023 z"
         style="stroke-width:0.02667756px"
         id="path4604"
         inkscape:connector-curvature="0" />
      <path
         d="M 83.700536,84.012375 H 81.92422 v -0.273734 l 1.28202,-1.616802 h -1.25445 v -0.309182 h 1.715268 v 0.263888 l -1.287928,1.62271 h 1.321406 z"
         style="stroke-width:0.02667756px"
         id="path4606"
         inkscape:connector-curvature="0" />
      <path
         d="m 86.065676,82.950918 h -1.62074 q 0,0.202838 0.06105,0.354475 0.06105,0.149668 0.167391,0.246164 0.102404,0.09453 0.242225,0.14179 0.141791,0.04726 0.311151,0.04726 0.224501,0 0.450972,-0.08862 0.228439,-0.09059 0.324936,-0.177237 h 0.01969 v 0.403708 q -0.187085,0.07877 -0.382046,0.131944 -0.194962,0.05317 -0.409616,0.05317 -0.547468,0 -0.85468,-0.295396 -0.307212,-0.297366 -0.307212,-0.842864 0,-0.539591 0.293427,-0.856649 0.295396,-0.317059 0.775907,-0.317059 0.445064,0 0.68532,0.259949 0.242224,0.259948 0.242224,0.73849 z m -0.360383,-0.283581 q -0.002,-0.291457 -0.147698,-0.450971 -0.14376,-0.159514 -0.439156,-0.159514 -0.297365,0 -0.474603,0.175268 -0.175269,0.175269 -0.1989,0.435217 z"
         style="stroke-width:0.02667756px"
         id="path4608"
         inkscape:connector-curvature="0" />
    </g>
    <g
       transform="translate(-31.237338,134.31444)"
       id="g4374"
       inkscape:label="Layer 1"
       style="font-style:normal;font-variant:normal;font-weight:normal;font-stretch:normal;font-size:medium;line-height:6.61458302px;font-family:DINPro;-inkscape-font-specification:DINPro;font-variant-ligatures:normal;font-variant-caps:normal;font-variant-numeric:normal;font-feature-settings:normal;text-align:center;letter-spacing:0px;word-spacing:0px;writing-mode:lr-tb;text-anchor:middle;fill:#000000;fill-opacity:1;stroke:none;stroke-width:0.26458332px;stroke-linecap:butt;stroke-linejoin:miter;stroke-opacity:1">
      <path
         style="fill:#000000;fill-opacity:1;fill-rule:nonzero;stroke:none;stroke-width:0.35277775"
         d="m 46.318588,100.79786 c 0,1.74046 1.409735,3.15019 3.1502,3.15019 1.739088,0 3.148824,-1.40973 3.148824,-3.15019 0,-1.739087 -1.409736,-3.150198 -3.148824,-3.150198 -1.740465,0 -3.1502,1.411111 -3.1502,3.150198"
         id="path4370"
         inkscape:connector-curvature="0" />
      <path
         style="fill:#ffffff;fill-opacity:1;fill-rule:nonzero;stroke:none;stroke-width:0.35277775"
         d="m 49.672764,97.658686 c -0.06752,-0.0055 -0.135079,-0.01101 -0.203976,-0.01101 -0.0689,0 -0.137795,0.0055 -0.205317,0.01101 v 3.139174 h 0.409293 z m 0,0"
         id="path4372"
         inkscape:connector-curvature="0" />
    </g>
    <g
       style="font-style:normal;font-variant:normal;font-weight:normal;font-stretch:normal;font-size:3.88055563px;line-height:6.61458302px;font-family:DINPro;-inkscape-font-specification:DINPro;font-variant-ligatures:normal;font-variant-caps:normal;font-variant-numeric:normal;font-feature-settings:normal;text-align:center;letter-spacing:0px;word-spacing:0px;writing-mode:lr-tb;text-anchor:middle;fill:#000000;fill-opacity:1;stroke:none;stroke-width:0.26458332px;stroke-linecap:butt;stroke-linejoin:miter;stroke-opacity:1"
       transform="translate(-85.965321,111.50202)"
       id="g4382"
       inkscape:label="Layer 1">
      <path
         style="fill:#e6e6e6;fill-opacity:1;fill-rule:nonzero;stroke:#636663;stroke-width:0.25;stroke-miterlimit:4;stroke-dasharray:none;stroke-opacity:1"
         d="m 92.788964,127.42922 c -2.235179,0 -4.05281,-1.81762 -4.05281,-4.05282 0,-2.23516 1.817631,-4.05281 4.05281,-4.05281 2.235176,0 4.05281,1.81765 4.05281,4.05281 0,2.2352 -1.817634,4.05282 -4.05281,4.05282"
         id="path4376"
         inkscape:connector-curvature="0" />
      <path
         style="fill:#e6e6e6;fill-opacity:1;fill-rule:nonzero;stroke:#636663;stroke-width:0.25;stroke-miterlimit:4;stroke-dasharray:none;stroke-opacity:1"
         d="m 92.788964,126.29511 c -1.609548,0 -2.918685,-1.30916 -2.918685,-2.91871 0,-1.60954 1.309137,-2.91867 2.918685,-2.91867 1.609549,0 2.918682,1.30913 2.918682,2.91867 0,1.60955 -1.309133,2.91871 -2.918682,2.91871"
         id="path4378"
         inkscape:connector-curvature="0" />
      <path
         style="fill:#000000;fill-opacity:1;fill-rule:nonzero;stroke:none;stroke-width:0.35277775"
         d="m 94.588681,123.3764 c 0,0.99357 -0.806153,1.79974 -1.799717,1.79974 -0.993567,0 -1.79972,-0.80617 -1.79972,-1.79974 0,-0.99356 0.806153,-1.79969 1.79972,-1.79969 0.993564,0 1.799717,0.80613 1.799717,1.79969"
         id="path4380"
         inkscape:connector-curvature="0" />
    </g>
    <g
       transform="translate(-42.987054,141.82179)"
       aria-label="position"
       style="font-style:normal;font-variant:normal;font-weight:normal;font-stretch:normal;font-size:3.95667005px;line-height:1.25;font-family:sans-serif;-inkscape-font-specification:DINPro;font-variant-ligatures:normal;font-variant-caps:normal;font-variant-numeric:normal;font-feature-settings:normal;text-align:center;letter-spacing:0px;word-spacing:0px;writing-mode:lr-tb;text-anchor:middle;fill:#000000;fill-opacity:1;stroke:none;stroke-width:0.02617173px;stroke-linecap:butt;stroke-linejoin:miter;stroke-opacity:1"
       id="text3809">
      <path
         d="m 68.894022,92.871698 q 0,0.262748 -0.07535,0.48106 -0.07535,0.216381 -0.212517,0.367074 -0.127509,0.142966 -0.301387,0.222176 -0.171945,0.07728 -0.365141,0.07728 -0.168082,0 -0.305251,-0.03671 -0.135238,-0.03671 -0.276272,-0.113986 v 0.90416 h -0.36321 v -2.953978 h 0.36321 v 0.22604 q 0.144898,-0.121714 0.324571,-0.202857 0.181605,-0.08307 0.386393,-0.08307 0.390258,0 0.606638,0.295591 0.218313,0.293659 0.218313,0.817222 z m -0.374802,0.0097 q 0,-0.390257 -0.133306,-0.583454 -0.133306,-0.193197 -0.409577,-0.193197 -0.156489,0 -0.314911,0.06762 -0.158421,0.06762 -0.303319,0.177741 v 1.222935 q 0.154558,0.06955 0.26468,0.09467 0.112054,0.02511 0.253088,0.02511 0.303319,0 0.473332,-0.204788 0.170013,-0.204789 0.170013,-0.606637 z"
         style="stroke-width:0.02617173px"
         id="path4636"
         inkscape:connector-curvature="0" />
      <path
         d="m 71.299322,92.898746 q 0,0.527427 -0.270476,0.832678 -0.270475,0.305251 -0.724488,0.305251 -0.457876,0 -0.728352,-0.305251 -0.268543,-0.305251 -0.268543,-0.832678 0,-0.527427 0.268543,-0.832678 0.270476,-0.307183 0.728352,-0.307183 0.454013,0 0.724488,0.307183 0.270476,0.305251 0.270476,0.832678 z m -0.374802,0 q 0,-0.419237 -0.164217,-0.622094 -0.164218,-0.204788 -0.455945,-0.204788 -0.295591,0 -0.459808,0.204788 -0.162285,0.202857 -0.162285,0.622094 0,0.405713 0.164217,0.616297 0.164217,0.208653 0.457876,0.208653 0.289795,0 0.454013,-0.206721 0.166149,-0.208652 0.166149,-0.618229 z"
         style="stroke-width:0.02617173px"
         id="path4638"
         inkscape:connector-curvature="0" />
      <path
         d="m 73.405167,93.35469 q 0,0.295591 -0.24536,0.484924 -0.243428,0.189333 -0.666529,0.189333 -0.239564,0 -0.440489,-0.05603 -0.198993,-0.05796 -0.33423,-0.125578 v -0.407645 h 0.01932 q 0.171945,0.129442 0.38253,0.20672 0.210584,0.07535 0.403781,0.07535 0.239564,0 0.374802,-0.07728 0.135238,-0.07728 0.135238,-0.243428 0,-0.12751 -0.07341,-0.193196 -0.07341,-0.06569 -0.282067,-0.112055 -0.07728,-0.01739 -0.202857,-0.04057 -0.123646,-0.02318 -0.22604,-0.05023 -0.284,-0.07535 -0.403782,-0.220244 -0.11785,-0.14683 -0.11785,-0.359346 0,-0.133306 0.0541,-0.251156 0.05603,-0.11785 0.168081,-0.210585 0.10819,-0.0908 0.274339,-0.142965 0.168081,-0.05409 0.374802,-0.05409 0.193197,0 0.390257,0.0483 0.198993,0.04637 0.330367,0.113986 v 0.388325 h -0.01932 q -0.139101,-0.102394 -0.338094,-0.171945 -0.198993,-0.07148 -0.390258,-0.07148 -0.198992,0 -0.336162,0.07728 -0.13717,0.07535 -0.13717,0.22604 0,0.133306 0.08308,0.200925 0.08114,0.06762 0.262748,0.110122 0.100462,0.02318 0.224108,0.04637 0.125578,0.02318 0.208652,0.0425 0.253088,0.05796 0.390258,0.198992 0.13717,0.142966 0.13717,0.378666 z"
         style="stroke-width:0.02617173px"
         id="path4640"
         inkscape:connector-curvature="0" />
      <path
         d="m 74.317055,91.457498 h -0.409577 v -0.376734 h 0.409577 z m -0.02318,2.519286 h -0.36321 v -2.158008 h 0.36321 z"
         style="stroke-width:0.02617173px"
         id="path4642"
         inkscape:connector-curvature="0" />
      <path
         d="m 76.136969,93.957464 q -0.102395,0.02705 -0.224108,0.04443 -0.119782,0.01739 -0.214449,0.01739 -0.330366,0 -0.502312,-0.177741 -0.171945,-0.177741 -0.171945,-0.56993 v -1.147589 h -0.24536 v -0.305251 h 0.24536 v -0.620162 h 0.36321 v 0.620162 h 0.749604 v 0.305251 h -0.749604 v 0.983371 q 0,0.170013 0.0077,0.266612 0.0077,0.09467 0.0541,0.177741 0.0425,0.07728 0.115918,0.113986 0.07535,0.03478 0.227973,0.03478 0.08887,0 0.185468,-0.02511 0.0966,-0.02705 0.139102,-0.04444 h 0.01932 z"
         style="stroke-width:0.02617173px"
         id="path4644"
         inkscape:connector-curvature="0" />
      <path
         d="m 76.967715,91.457498 h -0.409577 v -0.376734 h 0.409577 z m -0.02318,2.519286 h -0.36321 v -2.158008 h 0.36321 z"
         style="stroke-width:0.02617173px"
         id="path4646"
         inkscape:connector-curvature="0" />
      <path
         d="m 79.506321,92.898746 q 0,0.527427 -0.270475,0.832678 -0.270476,0.305251 -0.724488,0.305251 -0.457876,0 -0.728352,-0.305251 -0.268543,-0.305251 -0.268543,-0.832678 0,-0.527427 0.268543,-0.832678 0.270476,-0.307183 0.728352,-0.307183 0.454012,0 0.724488,0.307183 0.270475,0.305251 0.270475,0.832678 z m -0.374801,0 q 0,-0.419237 -0.164218,-0.622094 -0.164217,-0.204788 -0.455944,-0.204788 -0.295591,0 -0.459808,0.204788 -0.162286,0.202857 -0.162286,0.622094 0,0.405713 0.164218,0.616297 0.164217,0.208653 0.457876,0.208653 0.289795,0 0.454012,-0.206721 0.16615,-0.208652 0.16615,-0.618229 z"
         style="stroke-width:0.02617173px"
         id="path4648"
         inkscape:connector-curvature="0" />
      <path
         d="m 81.874914,93.976784 h -0.36321 v -1.228732 q 0,-0.148761 -0.01739,-0.278203 -0.01739,-0.131374 -0.06376,-0.204789 -0.0483,-0.08114 -0.139101,-0.119782 -0.0908,-0.04057 -0.2357,-0.04057 -0.148762,0 -0.311047,0.07341 -0.162286,0.07341 -0.311047,0.187401 v 1.611261 h -0.36321 v -2.158008 h 0.36321 v 0.239564 q 0.170013,-0.141034 0.351618,-0.220245 0.181605,-0.07921 0.37287,-0.07921 0.349686,0 0.533223,0.210584 0.183537,0.210585 0.183537,0.606638 z"
         style="stroke-width:0.02617173px"
         id="path4650"
         inkscape:connector-curvature="0" />
    </g>
    <g
       inkscape:label="Layer 1"
       id="g4394"
       transform="translate(-85.965321,87.424934)"
       style="font-style:normal;font-variant:normal;font-weight:normal;font-stretch:normal;font-size:3.88055563px;line-height:6.61458302px;font-family:DINPro;-inkscape-font-specification:DINPro;font-variant-ligatures:normal;font-variant-caps:normal;font-variant-numeric:normal;font-feature-settings:normal;text-align:center;letter-spacing:0px;word-spacing:0px;writing-mode:lr-tb;text-anchor:middle;fill:#000000;fill-opacity:1;stroke:none;stroke-width:0.26458332px;stroke-linecap:butt;stroke-linejoin:miter;stroke-opacity:1">
      <path
         inkscape:connector-curvature="0"
         id="path4388"
         d="m 92.788964,127.42922 c -2.235179,0 -4.05281,-1.81762 -4.05281,-4.05282 0,-2.23516 1.817631,-4.05281 4.05281,-4.05281 2.235176,0 4.05281,1.81765 4.05281,4.05281 0,2.2352 -1.817634,4.05282 -4.05281,4.05282"
         style="fill:#e6e6e6;fill-opacity:1;fill-rule:nonzero;stroke:#636663;stroke-width:0.25;stroke-miterlimit:4;stroke-dasharray:none;stroke-opacity:1" />
      <path
         inkscape:connector-curvature="0"
         id="path4390"
         d="m 92.788964,126.29511 c -1.609548,0 -2.918685,-1.30916 -2.918685,-2.91871 0,-1.60954 1.309137,-2.91867 2.918685,-2.91867 1.609549,0 2.918682,1.30913 2.918682,2.91867 0,1.60955 -1.309133,2.91871 -2.918682,2.91871"
         style="fill:#e6e6e6;fill-opacity:1;fill-rule:nonzero;stroke:#636663;stroke-width:0.25;stroke-miterlimit:4;stroke-dasharray:none;stroke-opacity:1" />
      <path
         inkscape:connector-curvature="0"
         id="path4392"
         d="m 94.588681,123.3764 c 0,0.99357 -0.806153,1.79974 -1.799717,1.79974 -0.993567,0 -1.79972,-0.80617 -1.79972,-1.79974 0,-0.99356 0.806153,-1.79969 1.79972,-1.79969 0.993564,0 1.799717,0.80613 1.799717,1.79969"
         style="fill:#000000;fill-opacity:1;fill-rule:nonzero;stroke:none;stroke-width:0.35277775" />
    </g>
    <g
       transform="translate(-44.181982,143.5638)"
       aria-label="gate"
       style="font-style:normal;font-variant:normal;font-weight:normal;font-stretch:normal;font-size:4.84788132px;line-height:1.25;font-family:sans-serif;-inkscape-font-specification:DINPro;font-variant-ligatures:normal;font-variant-caps:normal;font-variant-numeric:normal;font-feature-settings:normal;text-align:center;letter-spacing:0px;word-spacing:0px;writing-mode:lr-tb;text-anchor:middle;fill:#000000;fill-opacity:1;stroke:none;stroke-width:0.03206671px;stroke-linecap:butt;stroke-linejoin:miter;stroke-opacity:1"
       id="text3797">
      <path
         d="m 78.293143,68.468891 q 0,0.672264 -0.30536,0.987093 -0.30536,0.314828 -0.93975,0.314828 -0.210675,0 -0.411881,-0.03077 -0.198839,-0.0284 -0.392944,-0.08285 v -0.454489 h 0.02367 q 0.108888,0.04261 0.345601,0.104153 0.236713,0.06391 0.473426,0.06391 0.227244,0 0.376373,-0.05444 0.149129,-0.05444 0.231979,-0.151496 0.08285,-0.09232 0.118356,-0.222511 0.03551,-0.130192 0.03551,-0.291156 v -0.241448 q -0.201206,0.160965 -0.385842,0.241448 -0.182269,0.07811 -0.466324,0.07811 -0.473426,0 -0.752748,-0.340867 -0.276954,-0.343234 -0.276954,-0.965789 0,-0.340866 0.09469,-0.587048 0.09705,-0.248548 0.262751,-0.42845 0.153863,-0.168066 0.374006,-0.260385 0.220143,-0.09468 0.437919,-0.09468 0.229612,0 0.383475,0.04734 0.156231,0.04497 0.329031,0.139661 l 0.02841,-0.113623 h 0.416615 z m -0.445021,-0.426084 v -1.441582 q -0.177534,-0.08048 -0.331398,-0.113622 -0.151496,-0.03551 -0.302992,-0.03551 -0.366905,0 -0.57758,0.246182 -0.210675,0.246181 -0.210675,0.714873 0,0.44502 0.156231,0.674632 0.156231,0.229611 0.518401,0.229611 0.194105,0 0.38821,-0.07338 0.196471,-0.07575 0.359803,-0.201206 z"
         style="stroke-width:0.03206671px"
         id="path4653"
         inkscape:connector-curvature="0" />
      <path
         d="m 81.223649,68.769516 h -0.442653 v -0.281688 q -0.05918,0.04024 -0.160965,0.113622 -0.09942,0.07101 -0.194105,0.113622 -0.111255,0.05444 -0.25565,0.08995 -0.144395,0.03787 -0.338499,0.03787 -0.357437,0 -0.605985,-0.236713 -0.248549,-0.236713 -0.248549,-0.603618 0,-0.300625 0.127825,-0.485262 0.130192,-0.187003 0.369272,-0.293524 0.241447,-0.10652 0.579947,-0.144395 0.3385,-0.03787 0.726709,-0.05681 v -0.06865 q 0,-0.151497 -0.05444,-0.250916 -0.05208,-0.09942 -0.151496,-0.156231 -0.09469,-0.05444 -0.227245,-0.07338 -0.132559,-0.01894 -0.276954,-0.01894 -0.175168,0 -0.390576,0.04734 -0.215409,0.04497 -0.445021,0.132559 h -0.02367 V 66.18223 q 0.130192,-0.03551 0.376373,-0.07811 0.246182,-0.04261 0.485262,-0.04261 0.279321,0 0.485262,0.04734 0.208307,0.04498 0.359803,0.156231 0.149129,0.108888 0.227245,0.281688 0.07811,0.172801 0.07811,0.428451 z m -0.442653,-0.650961 v -0.736177 q -0.203573,0.01184 -0.480528,0.03551 -0.274587,0.02367 -0.435551,0.06865 -0.191738,0.05444 -0.310094,0.170433 -0.118357,0.113622 -0.118357,0.314828 0,0.227245 0.137294,0.343234 0.137293,0.113622 0.418982,0.113622 0.234345,0 0.42845,-0.08995 0.194105,-0.09232 0.359804,-0.220143 z"
         style="stroke-width:0.03206671px"
         id="path4655"
         inkscape:connector-curvature="0" />
      <path
         d="m 83.458219,68.745845 q -0.125458,0.03314 -0.274587,0.05444 -0.146762,0.0213 -0.262751,0.0213 -0.404779,0 -0.615454,-0.217776 -0.210674,-0.217776 -0.210674,-0.698303 v -1.406075 h -0.300626 v -0.374007 h 0.300626 v -0.759848 h 0.44502 v 0.759848 h 0.918446 v 0.374007 H 82.539773 V 67.7043 q 0,0.208307 0.0095,0.326664 0.0095,0.115989 0.06628,0.217775 0.05208,0.09469 0.142028,0.139661 0.09232,0.04261 0.279321,0.04261 0.108888,0 0.227245,-0.03077 0.118356,-0.03314 0.170433,-0.05444 h 0.02367 z"
         style="stroke-width:0.03206671px"
         id="path4657"
         inkscape:connector-curvature="0" />
      <path
         d="m 86.211191,67.493633 h -1.948148 q 0,0.243815 0.07338,0.426083 0.07338,0.179902 0.201206,0.295892 0.123091,0.113622 0.291157,0.170433 0.170434,0.05681 0.374007,0.05681 0.269852,0 0.542072,-0.106521 0.274587,-0.108888 0.390577,-0.213041 h 0.02367 v 0.485261 q -0.224877,0.09468 -0.459223,0.158598 -0.234346,0.06391 -0.492363,0.06391 -0.658062,0 -1.027334,-0.355069 -0.369272,-0.357437 -0.369272,-1.013132 0,-0.648593 0.352702,-1.029701 0.355069,-0.381108 0.932649,-0.381108 0.534971,0 0.823761,0.312461 0.291157,0.312461 0.291157,0.887674 z m -0.433185,-0.340866 q -0.0024,-0.350336 -0.177535,-0.542073 -0.1728,-0.191738 -0.527869,-0.191738 -0.357437,0 -0.570479,0.210675 -0.210674,0.210674 -0.23908,0.523136 z"
         style="stroke-width:0.03206671px"
         id="path4659"
         inkscape:connector-curvature="0" />
    </g>
    <g
       style="font-style:normal;font-variant:normal;font-weight:normal;font-stretch:normal;font-size:medium;line-height:6.61458302px;font-family:DINPro;-inkscape-font-specification:DINPro;font-variant-ligatures:normal;font-variant-caps:normal;font-variant-numeric:normal;font-feature-settings:normal;text-align:center;letter-spacing:0px;word-spacing:0px;writing-mode:lr-tb;text-anchor:middle;fill:#000000;fill-opacity:1;stroke:none;stroke-width:0.26458332px;stroke-linecap:butt;stroke-linejoin:miter;stroke-opacity:1"
       inkscape:label="Layer 1"
       id="g4430"
       transform="matrix(2.5059499,0,0,2.5059499,-100.19706,2.6447149)">
      <path
         inkscape:connector-curvature="0"
         id="path4426"
         d="m 46.318588,100.79786 c 0,1.74046 1.409735,3.15019 3.1502,3.15019 1.739088,0 3.148824,-1.40973 3.148824,-3.15019 0,-1.739087 -1.409736,-3.150198 -3.148824,-3.150198 -1.740465,0 -3.1502,1.411111 -3.1502,3.150198"
         style="fill:#000000;fill-opacity:1;fill-rule:nonzero;stroke:none;stroke-width:0.35277775" />
      <path
         inkscape:connector-curvature="0"
         id="path4428"
         d="m 49.672764,97.658686 c -0.06752,-0.0055 -0.135079,-0.01101 -0.203976,-0.01101 -0.0689,0 -0.137795,0.0055 -0.205317,0.01101 v 3.139174 h 0.409293 z m 0,0"
         style="fill:#ffffff;fill-opacity:1;fill-rule:nonzero;stroke:none;stroke-width:0.35277775" />
    </g>
    <g
       inkscape:label="Layer 1"
       id="g4438"
       transform="translate(-70.090321,146.16243)"
       style="font-style:normal;font-variant:normal;font-weight:normal;font-stretch:normal;font-size:3.88055563px;line-height:6.61458302px;font-family:DINPro;-inkscape-font-specification:DINPro;font-variant-ligatures:normal;font-variant-caps:normal;font-variant-numeric:normal;font-feature-settings:normal;text-align:center;letter-spacing:0px;word-spacing:0px;writing-mode:lr-tb;text-anchor:middle;fill:#000000;fill-opacity:1;stroke:none;stroke-width:0.26458332px;stroke-linecap:butt;stroke-linejoin:miter;stroke-opacity:1">
      <path
         inkscape:connector-curvature="0"
         id="path4432"
         d="m 92.788964,127.42922 c -2.235179,0 -4.05281,-1.81762 -4.05281,-4.05282 0,-2.23516 1.817631,-4.05281 4.05281,-4.05281 2.235176,0 4.05281,1.81765 4.05281,4.05281 0,2.2352 -1.817634,4.05282 -4.05281,4.05282"
         style="fill:#e6e6e6;fill-opacity:1;fill-rule:nonzero;stroke:#636663;stroke-width:0.25;stroke-miterlimit:4;stroke-dasharray:none;stroke-opacity:1" />
      <path
         inkscape:connector-curvature="0"
         id="path4434"
         d="m 92.788964,126.29511 c -1.609548,0 -2.918685,-1.30916 -2.918685,-2.91871 0,-1.60954 1.309137,-2.91867 2.918685,-2.91867 1.609549,0 2.918682,1.30913 2.918682,2.91867 0,1.60955 -1.309133,2.91871 -2.918682,2.91871"
         style="fill:#e6e6e6;fill-opacity:1;fill-rule:nonzero;stroke:#636663;stroke-width:0.25;stroke-miterlimit:4;stroke-dasharray:none;stroke-opacity:1" />
      <path
         inkscape:connector-curvature="0"
         id="path4436"
         d="m 94.588681,123.3764 c 0,0.99357 -0.806153,1.79974 -1.799717,1.79974 -0.993567,0 -1.79972,-0.80617 -1.79972,-1.79974 0,-0.99356 0.806153,-1.79969 1.79972,-1.79969 0.993564,0 1.799717,0.80613 1.799717,1.79969"
         style="fill:#000000;fill-opacity:1;fill-rule:nonzero;stroke:none;stroke-width:0.35277775" />
    </g>
    <g
       transform="translate(-26.911857,141.0607)"
       id="layer1-7"
       inkscape:label="Layer 1">
      <g
         style="clip-rule:nonzero"
         id="g31387"
         clip-path="url(#clip444)"
         transform="matrix(0.26458333,0,0,0.26458333,-271.16296,-21.64884)">
        <path
           inkscape:connector-curvature="0"
           id="path31385"
           d="m 1202.125,344.12109 c -1.6953,4.66797 0.7148,9.83594 5.3789,11.53516 4.6719,1.69531 9.8359,-0.71094 11.5352,-5.37891 1.6992,-4.67187 -0.7071,-9.83203 -5.3789,-11.53515 -4.668,-1.69532 -9.8282,0.70703 -11.5352,5.3789"
           style="fill:#2b2b2b;fill-opacity:1;fill-rule:nonzero;stroke:none" />
      </g>
    </g>
    <g
       transform="translate(-42.987054,141.82179)"
       aria-label="Mix"
       style="font-style:normal;font-variant:normal;font-weight:normal;font-stretch:normal;font-size:4.85473013px;line-height:1.25;font-family:sans-serif;-inkscape-font-specification:DINPro;font-variant-ligatures:normal;font-variant-caps:normal;font-variant-numeric:normal;font-feature-settings:normal;text-align:center;letter-spacing:0px;word-spacing:0px;writing-mode:lr-tb;text-anchor:middle;fill:#000000;fill-opacity:1;stroke:none;stroke-width:0.03211202px;stroke-linecap:butt;stroke-linejoin:miter;stroke-opacity:1"
       id="text4442">
      <path
         d="m 73.560136,129.54112 h -0.469354 v -3.04132 l -0.981376,2.06943 H 71.82969 l -0.974264,-2.06943 v 3.04132 h -0.438538 v -3.52963 h 0.640028 l 0.941078,1.96512 0.910262,-1.96512 h 0.65188 z"
         style="stroke-width:0.03211202px"
         id="path4629"
         inkscape:connector-curvature="0" />
      <path
         d="m 74.956345,126.45002 h -0.50254 v -0.46224 h 0.50254 z m -0.02845,3.0911 H 74.482251 V 126.8933 H 74.9279 Z"
         style="stroke-width:0.03211202px"
         id="path4631"
         inkscape:connector-curvature="0" />
      <path
         d="m 78.106705,129.54112 h -0.561803 l -0.75144,-1.01693 -0.756181,1.01693 h -0.519134 l 1.033527,-1.32035 -1.024045,-1.32747 h 0.561803 l 0.746699,1.00034 0.749069,-1.00034 h 0.521505 l -1.040638,1.30376 z"
         style="stroke-width:0.03211202px"
         id="path4633"
         inkscape:connector-curvature="0" />
    </g>
  </g>
</svg>
